<svg xmlns="http://www.w3.org/2000/svg" viewBox="0 0 32 32"><title>ask android app aplication phone</title><g id="ask_android_app_aplication_phone" data-name="ask android app aplication phone"><path d="M16,31A15,15,0,1,1,31,16,15,15,0,0,1,16,31ZM16,3A13,13,0,1,0,29,16,13,13,0,0,0,16,3Z"/><path d="M16,22a1,1,0,0,1-1-1V19.5A3.5,3.5,0,0,1,18.5,16,1.5,1.5,0,0,0,20,14.5v-5A1.5,1.5,0,0,0,18.5,8h-5A1.5,1.5,0,0,0,12,9.5V12a1,1,0,0,1-2,0V9.5A3.5,3.5,0,0,1,13.5,6h5A3.5,3.5,0,0,1,22,9.5v5A3.5,3.5,0,0,1,18.5,18,1.5,1.5,0,0,0,17,19.5V21A1,1,0,0,1,16,22Z"/><circle cx="16" cy="25" r="1"/></g></svg>