<?xml version="1.0" encoding="utf-8"?>
<!-- Generator: Adobe Illustrator 22.0.0, SVG Export Plug-In . SVG Version: 6.00 Build 0)  -->
<svg version="1.1" id="Icon_Set" xmlns="http://www.w3.org/2000/svg" xmlns:xlink="http://www.w3.org/1999/xlink" x="0px" y="0px"
	 viewBox="0 0 64 64" style="enable-background:new 0 0 64 64;" xml:space="preserve">
<style type="text/css">
	.st0{fill:#40C4FF;}
	.st1{fill:#263238;}
	.st2{fill:#FFD740;}
	.st3{fill:#FF5252;}
	.st4{fill:#4DB6AC;}
	.st5{fill:#FFFFFF;}
	.st6{fill:#4FC3F7;}
	.st7{fill:#37474F;}
</style>
<g>
	<g>
		<path class="st1" d="M22.005,60.5c-0.276,0-0.5-0.224-0.5-0.5v-1.955c0-0.763-0.424-1.448-1.106-1.789l-5.626-2.813
			c-0.247-0.124-0.347-0.424-0.224-0.671s0.424-0.349,0.671-0.224l5.626,2.813c1.023,0.512,1.659,1.54,1.659,2.684V60
			C22.505,60.276,22.281,60.5,22.005,60.5z"/>
	</g>
	<g>
		<path class="st1" d="M12.005,52.5c-3.584,0-6.5-2.916-6.5-6.5s2.916-6.5,6.5-6.5s6.5,2.916,6.5,6.5S15.589,52.5,12.005,52.5z
			 M12.005,40.5c-3.033,0-5.5,2.468-5.5,5.5s2.467,5.5,5.5,5.5s5.5-2.468,5.5-5.5S15.038,40.5,12.005,40.5z"/>
	</g>
	<g>
		<path class="st2" d="M16.165,42.531l0.447-0.372C15.512,40.84,13.857,40,12.005,40c-3.314,0-6,2.686-6,6h0.566
			C10.076,46,13.471,44.772,16.165,42.531z"/>
		<path class="st1" d="M6.571,46.5H6.005c-0.276,0-0.5-0.224-0.5-0.5c0-3.584,2.916-6.5,6.5-6.5c1.932,0,3.751,0.853,4.991,2.338
			c0.085,0.102,0.126,0.233,0.114,0.365c-0.012,0.133-0.076,0.255-0.178,0.34l-0.447,0.372C13.707,45.227,10.186,46.5,6.571,46.5z
			 M6.527,45.5h0.044c3.381,0,6.675-1.191,9.274-3.354l0,0l0.045-0.037c-1.028-1.027-2.418-1.608-3.885-1.608
			C9.141,40.5,6.781,42.7,6.527,45.5z"/>
	</g>
	<g>
		<path class="st1" d="M12,57.995c-0.167,0-0.323-0.083-0.416-0.222l-3.004-4.49c-0.055-0.082-0.084-0.179-0.084-0.278l-0.001-1.82
			c0-0.179,0.096-0.344,0.25-0.434c0.157-0.088,0.347-0.089,0.501,0.002c1.675,0.974,3.825,0.977,5.499,0.011
			c0.154-0.09,0.345-0.09,0.5,0c0.155,0.089,0.25,0.254,0.25,0.433l0.001,1.799c0,0.099-0.029,0.195-0.084,0.277l-2.996,4.5
			C12.324,57.911,12.167,57.995,12,57.995L12,57.995z M9.496,52.853l2.503,3.742l2.497-3.751l0-0.844
			c-1.583,0.66-3.42,0.657-5-0.008L9.496,52.853z"/>
	</g>
	<g>
		<path class="st1" d="M2,60.5c-0.276,0-0.5-0.224-0.5-0.5v-1.954c0-1.145,0.636-2.173,1.66-2.684l5.613-2.805
			c0.247-0.124,0.548-0.022,0.671,0.224c0.124,0.247,0.023,0.548-0.224,0.671l-5.613,2.805C2.924,56.598,2.5,57.283,2.5,58.046V60
			C2.5,60.276,2.276,60.5,2,60.5z"/>
	</g>
	<g>
		<path class="st1" d="M12,60.5c-0.276,0-0.5-0.224-0.5-0.5v-2.505c0-0.276,0.224-0.5,0.5-0.5s0.5,0.224,0.5,0.5V60
			C12.5,60.276,12.276,60.5,12,60.5z"/>
	</g>
	<g>
		<path class="st1" d="M51.991,60.5c-0.276,0-0.5-0.224-0.5-0.5v-2.505c0-0.276,0.224-0.5,0.5-0.5s0.5,0.224,0.5,0.5V60
			C52.491,60.276,52.267,60.5,51.991,60.5z"/>
	</g>
	<g>
		<path class="st1" d="M62,60.5c-0.276,0-0.5-0.224-0.5-0.5v-1.955c0-0.763-0.424-1.448-1.105-1.789l-5.627-2.813
			c-0.247-0.124-0.347-0.424-0.224-0.671c0.124-0.247,0.423-0.349,0.671-0.224l5.627,2.813c1.023,0.512,1.658,1.54,1.658,2.684V60
			C62.5,60.276,62.276,60.5,62,60.5z"/>
	</g>
	<g>
		<path class="st1" d="M52,52.5c-3.584,0-6.5-2.916-6.5-6.5s2.916-6.5,6.5-6.5s6.5,2.916,6.5,6.5S55.584,52.5,52,52.5z M52,40.5
			c-3.033,0-5.5,2.468-5.5,5.5s2.467,5.5,5.5,5.5s5.5-2.468,5.5-5.5S55.033,40.5,52,40.5z"/>
	</g>
	<g>
		<path class="st2" d="M56.16,42.531l0.447-0.372C55.507,40.84,53.852,40,52,40c-3.314,0-6,2.686-6,6h0.566
			C50.072,46,53.466,44.772,56.16,42.531z"/>
		<path class="st1" d="M46.566,46.5H46c-0.276,0-0.5-0.224-0.5-0.5c0-3.584,2.916-6.5,6.5-6.5c1.932,0,3.751,0.853,4.991,2.338
			c0.085,0.102,0.126,0.233,0.114,0.365c-0.012,0.133-0.076,0.255-0.178,0.34l-0.447,0.372C53.702,45.227,50.181,46.5,46.566,46.5z
			 M46.522,45.5h0.044c3.381,0,6.675-1.191,9.274-3.354l0,0l0.045-0.037C54.857,41.081,53.467,40.5,52,40.5
			C49.136,40.5,46.776,42.7,46.522,45.5z"/>
	</g>
	<g>
		<path class="st1" d="M51.991,57.995c-0.167,0-0.323-0.083-0.416-0.223l-2.999-4.49c-0.055-0.082-0.084-0.179-0.084-0.277
			l-0.001-1.82c0-0.179,0.095-0.344,0.25-0.434c0.156-0.088,0.347-0.089,0.501,0.002c1.674,0.974,3.824,0.978,5.499,0.011
			c0.154-0.09,0.345-0.089,0.5-0.001c0.154,0.09,0.25,0.255,0.25,0.434l0.001,1.799c0,0.099-0.029,0.195-0.084,0.277l-3.001,4.5
			C52.314,57.911,52.158,57.995,51.991,57.995z M49.492,52.854l2.499,3.741l2.501-3.751L54.491,52c-1.583,0.66-3.419,0.657-5-0.008
			L49.492,52.854z"/>
	</g>
	<g>
		<path class="st1" d="M41.995,60.5c-0.276,0-0.5-0.224-0.5-0.5v-1.954c0-1.145,0.636-2.173,1.66-2.684l5.613-2.805
			c0.247-0.124,0.548-0.022,0.671,0.224c0.124,0.247,0.023,0.548-0.224,0.671l-5.614,2.805c-0.683,0.341-1.106,1.026-1.106,1.789V60
			C42.495,60.276,42.271,60.5,41.995,60.5z"/>
	</g>
	<g>
		<path class="st1" d="M42.002,54.5c-0.276,0-0.5-0.224-0.5-0.5v-6.455c0-0.763-0.424-1.448-1.105-1.789l-5.627-2.813
			c-0.247-0.124-0.347-0.424-0.224-0.671c0.124-0.246,0.424-0.348,0.671-0.224l5.627,2.813c1.023,0.512,1.658,1.54,1.658,2.684V54
			C42.502,54.276,42.279,54.5,42.002,54.5z"/>
	</g>
	<g>
		<path class="st1" d="M32.002,42c-3.584,0-6.5-2.916-6.5-6.5s2.916-6.5,6.5-6.5s6.5,2.916,6.5,6.5S35.586,42,32.002,42z M32.002,30
			c-3.033,0-5.5,2.468-5.5,5.5s2.467,5.5,5.5,5.5s5.5-2.468,5.5-5.5S35.035,30,32.002,30z"/>
	</g>
	<g>
		<path class="st2" d="M36.163,32.031l0.447-0.372c-1.101-1.319-2.755-2.159-4.607-2.159c-3.314,0-6,2.686-6,6h0.566
			C30.074,35.5,33.468,34.272,36.163,32.031z"/>
		<path class="st1" d="M26.569,36h-0.566c-0.276,0-0.5-0.224-0.5-0.5c0-3.584,2.916-6.5,6.5-6.5c1.932,0,3.751,0.853,4.991,2.338
			c0.085,0.102,0.126,0.233,0.114,0.365c-0.012,0.133-0.076,0.255-0.178,0.34l-0.447,0.372C33.704,34.727,30.184,36,26.569,36z
			 M26.525,35h0.044c3.381,0,6.675-1.191,9.274-3.354l0,0l0.045-0.037C34.859,30.581,33.469,30,32.002,30
			C29.138,30,26.778,32.2,26.525,35z"/>
	</g>
	<g>
		<path class="st1" d="M31.998,47.495c-0.167,0-0.323-0.083-0.416-0.222l-3.003-4.49c-0.055-0.082-0.084-0.179-0.084-0.278
			l-0.001-1.82c0-0.179,0.095-0.344,0.25-0.434c0.155-0.088,0.347-0.089,0.501,0.002c1.674,0.975,3.825,0.978,5.499,0.011
			c0.154-0.09,0.345-0.089,0.5-0.001c0.154,0.09,0.25,0.255,0.25,0.434l0.001,1.799c0,0.099-0.029,0.195-0.084,0.277l-2.997,4.5
			C32.321,47.411,32.165,47.495,31.998,47.495L31.998,47.495z M29.494,42.353l2.502,3.742l2.498-3.751L34.493,41.5
			c-1.583,0.66-3.419,0.656-5-0.008L29.494,42.353z"/>
	</g>
	<g>
		<path class="st1" d="M21.998,54.5c-0.276,0-0.5-0.224-0.5-0.5v-6.454c0-1.145,0.636-2.173,1.66-2.684l5.613-2.805
			c0.248-0.124,0.548-0.022,0.671,0.224c0.124,0.247,0.023,0.548-0.224,0.671l-5.614,2.805c-0.683,0.341-1.106,1.026-1.106,1.789V54
			C22.498,54.276,22.274,54.5,21.998,54.5z"/>
	</g>
	<g>
		<path class="st1" d="M31.998,50c-0.276,0-0.5-0.224-0.5-0.5v-2.505c0-0.276,0.224-0.5,0.5-0.5s0.5,0.224,0.5,0.5V49.5
			C32.498,49.776,32.274,50,31.998,50z"/>
	</g>
	<g>
		<polygon class="st0" points="40.834,42.686 38.166,41.315 42.294,33.288 38.129,26 25.871,26 21.706,33.288 25.834,41.315 
			23.166,42.686 18.294,33.212 24.129,23 39.871,23 45.706,33.212 		"/>
		<path class="st1" d="M40.833,43.186c-0.077,0-0.155-0.018-0.228-0.056l-2.668-1.371c-0.118-0.061-0.207-0.165-0.248-0.292
			c-0.041-0.126-0.029-0.263,0.031-0.381l4.004-7.785L37.839,26.5H26.161l-3.886,6.801l4.004,7.785
			c0.061,0.118,0.072,0.255,0.031,0.381c-0.041,0.127-0.129,0.231-0.248,0.292l-2.668,1.371c-0.247,0.127-0.547,0.029-0.673-0.216
			l-4.872-9.474c-0.077-0.15-0.073-0.33,0.011-0.477l5.835-10.212c0.089-0.156,0.255-0.252,0.434-0.252h15.741
			c0.179,0,0.345,0.096,0.434,0.252l5.835,10.212c0.084,0.146,0.088,0.326,0.011,0.477l-4.872,9.474
			C41.19,43.087,41.015,43.186,40.833,43.186z M38.839,41.099l1.779,0.914l4.519-8.788L39.581,23.5H24.419l-5.557,9.725l4.519,8.788
			l1.779-0.914l-3.899-7.582c-0.077-0.15-0.073-0.33,0.011-0.477l4.165-7.288c0.089-0.156,0.255-0.252,0.434-0.252h12.259
			c0.179,0,0.345,0.096,0.434,0.252l4.165,7.288c0.084,0.146,0.088,0.326,0.011,0.477L38.839,41.099z"/>
	</g>
	<g>
		<rect x="28.002" y="22" class="st5" width="8" height="5"/>
		<path class="st1" d="M36.002,27.5h-8c-0.276,0-0.5-0.224-0.5-0.5v-5c0-0.276,0.224-0.5,0.5-0.5h8c0.276,0,0.5,0.224,0.5,0.5v5
			C36.502,27.276,36.279,27.5,36.002,27.5z M28.502,26.5h7v-4h-7V26.5z"/>
	</g>
	<g>
		<path class="st1" d="M33.502,20.5c-0.276,0-0.5-0.224-0.5-0.5V4c0-0.276,0.224-0.5,0.5-0.5s0.5,0.224,0.5,0.5v16
			C34.002,20.276,33.779,20.5,33.502,20.5z"/>
	</g>
	<g>
		<path class="st1" d="M30.502,20.5c-0.276,0-0.5-0.224-0.5-0.5V4c0-0.276,0.224-0.5,0.5-0.5s0.5,0.224,0.5,0.5v16
			C31.002,20.276,30.779,20.5,30.502,20.5z"/>
	</g>
	<g>
		<path class="st1" d="M25.998,60.5c-0.276,0-0.5-0.224-0.5-0.5V49c0-0.276,0.224-0.5,0.5-0.5s0.5,0.224,0.5,0.5v11
			C26.498,60.276,26.274,60.5,25.998,60.5z"/>
	</g>
	<g>
		<path class="st1" d="M37.998,60.5c-0.276,0-0.5-0.224-0.5-0.5V49c0-0.276,0.224-0.5,0.5-0.5s0.5,0.224,0.5,0.5v11
			C38.498,60.276,38.274,60.5,37.998,60.5z"/>
	</g>
	<g>
		<path class="st1" d="M16.096,29.005h-10c-0.276,0-0.5-0.224-0.5-0.5s0.224-0.5,0.5-0.5h10c0.276,0,0.5,0.224,0.5,0.5
			S16.373,29.005,16.096,29.005z"/>
	</g>
	<g>
		<path class="st1" d="M3.904,29.005h-1c-0.276,0-0.5-0.224-0.5-0.5s0.224-0.5,0.5-0.5h1c0.276,0,0.5,0.224,0.5,0.5
			S4.18,29.005,3.904,29.005z"/>
	</g>
	<g>
		<path class="st1" d="M57.904,29.005h-10c-0.276,0-0.5-0.224-0.5-0.5s0.224-0.5,0.5-0.5h10c0.276,0,0.5,0.224,0.5,0.5
			S58.18,29.005,57.904,29.005z"/>
	</g>
	<g>
		<path class="st1" d="M61.096,29.005h-1c-0.276,0-0.5-0.224-0.5-0.5s0.224-0.5,0.5-0.5h1c0.276,0,0.5,0.224,0.5,0.5
			S61.373,29.005,61.096,29.005z"/>
	</g>
	<g>
		<path class="st1" d="M54,12.5h-4c-0.276,0-0.5-0.224-0.5-0.5s0.224-0.5,0.5-0.5h4c0.276,0,0.5,0.224,0.5,0.5S54.276,12.5,54,12.5z
			"/>
	</g>
	<g>
		<path class="st1" d="M52,14.5c-0.276,0-0.5-0.224-0.5-0.5v-4c0-0.276,0.224-0.5,0.5-0.5s0.5,0.224,0.5,0.5v4
			C52.5,14.276,52.276,14.5,52,14.5z"/>
	</g>
	<g>
		<path class="st1" d="M48,17.5h-4c-0.276,0-0.5-0.224-0.5-0.5s0.224-0.5,0.5-0.5h4c0.276,0,0.5,0.224,0.5,0.5S48.276,17.5,48,17.5z
			"/>
	</g>
	<g>
		<path class="st1" d="M46,19.5c-0.276,0-0.5-0.224-0.5-0.5v-4c0-0.276,0.224-0.5,0.5-0.5s0.5,0.224,0.5,0.5v4
			C46.5,19.276,46.276,19.5,46,19.5z"/>
	</g>
</g>
</svg>
