<svg xmlns="http://www.w3.org/2000/svg" viewBox="0 0 48 48"><title>21-Free Online Advertising</title><g id="_21-Free_Online_Advertising" data-name="21-Free Online Advertising"><rect x="14" y="19" width="2" height="6"/><path d="M43,42H20V40H43a1,1,0,0,0,1-1V19h2V39A3,3,0,0,1,43,42Z"/><path d="M33,48H27a1,1,0,0,1-1-1V41a1,1,0,0,1,1-1h6a1,1,0,0,1,1,1v6A1,1,0,0,1,33,48Zm-5-2h4V42H28Z"/><rect x="24" y="46" width="12" height="2"/><rect x="20" y="34" width="25" height="2"/><path d="M5,48H3a1,1,0,0,1-1-1V38a1,1,0,0,1,1-1H7a1,1,0,0,1,1,1v7A3,3,0,0,1,5,48ZM4,46H5a1,1,0,0,0,1-1V39H4Z"/><path d="M11,39H4a4,4,0,0,1-4-4V30a4,4,0,0,1,4-4h7a1,1,0,0,1,1,1V38A1,1,0,0,1,11,39ZM4,28a2,2,0,0,0-2,2v5a2,2,0,0,0,2,2h6V28Z"/><path d="M24,28a.987.987,0,0,1-.383-.076A1,1,0,0,1,23,27V20H9a4,4,0,0,1-4-4V4A4,4,0,0,1,9,0H44a4,4,0,0,1,4,4V16a4,4,0,0,1-4,4H32.414l-7.707,7.707A1,1,0,0,1,24,28ZM9,2A2,2,0,0,0,7,4V16a2,2,0,0,0,2,2H24a1,1,0,0,1,1,1v5.586l6.293-6.293A1,1,0,0,1,32,18H44a2,2,0,0,0,2-2V4a2,2,0,0,0-2-2Z"/><path d="M13,16H11V5a1,1,0,0,1,1-1h5V6H13Z"/><rect x="12" y="8" width="3" height="2"/><path d="M34,16H29a1,1,0,0,1-1-1V5a1,1,0,0,1,1-1h5V6H30v8h4Z"/><rect x="29" y="8" width="5" height="2"/><path d="M42,16H37a1,1,0,0,1-1-1V5a1,1,0,0,1,1-1h5V6H38v8h4Z"/><rect x="37" y="8" width="5" height="2"/><path d="M26,16H24V13.333L21.2,9.6A1,1,0,0,1,21,9v7H19V5a1,1,0,0,1,1-1h5a1,1,0,0,1,1,1V9a1,1,0,0,1-1,1H24l1.8,2.4a1,1,0,0,1,.2.6ZM21,6V9a1,1,0,0,1,1-1h2V6Z"/><path d="M20,44a1,1,0,0,1-.486-.126l-9-5A1,1,0,0,1,10,38V27a1,1,0,0,1,.684-.948l9-3A1,1,0,0,1,21,24V43a1,1,0,0,1-1,1Zm-8-6.589,7,3.89V25.388l-7,2.333Z"/><rect x="4" y="30" width="4" height="2"/><rect x="36" y="26" width="6" height="2"/><rect x="38" y="30" width="4" height="2"/></g></svg>